# xmcd CD database file
#
# Track frame offsets:
#	150
#	14789
#	29359
#	40329
#	53593
#	64078
#	80685
#	98949
#	109194
#	123880
#	143360
#	153442
#	167682
#	170738
#	185693
#	202026
#
# Disc length: 2760 seconds
#
# Revision: 0
# Processed by: cddbd v1.5.1PL2 Copyright (c) Steve Scherf et al.
# Submitted via: CDex 1.51
#
DISCID=dd0ac610
DTITLE=Strika Tango - Civilizacio
DYEAR=2004
DGENRE=Jazz
TTITLE0=La vivon varmigas la sun'
TTITLE1=Are
TTITLE2=Jen
TTITLE3=Preferindus
TTITLE4=Nur melodio
TTITLE5=Pli libera
TTITLE6=La Druido
TTITLE7=Civilizacio
TTITLE8=Bona Espero
TTITLE9=Via Vio
TTITLE10=Homarano
TTITLE11=Silento Parto 2
TTITLE12=Silento parto 3
TTITLE13=Umi
TTITLE14=Che Montpellier
TTITLE15=Sonsistemo
EXTD=YEAR: 2004
EXTT0=
EXTT1=
EXTT2=
EXTT3=
EXTT4=
EXTT5=
EXTT6=
EXTT7=
EXTT8=
EXTT9=
EXTT10=
EXTT11=
EXTT12=
EXTT13=
EXTT14=
EXTT15=
PLAYORDER=
